<svg id="Layer_1" data-name="Layer 1" xmlns="http://www.w3.org/2000/svg" viewBox="0 0 500 500"><defs><style>.cls-1{fill:#293b52;}.cls-2{fill:#f8d16c;}</style></defs><title>Artboard 1</title><rect class="cls-1" width="500" height="500" rx="50"/><path class="cls-2" d="M437.5,400H62.5A12.4966,12.4966,0,0,0,50,412.5v25A12.4966,12.4966,0,0,0,62.5,450h375A12.4966,12.4966,0,0,0,450,437.5v-25A12.4966,12.4966,0,0,0,437.5,400ZM200,350l-50-25,50-25,25-50,25,50,50,25-50,25-12.5,25H400L332.4922,217.4766a49.9652,49.9652,0,0,1-1.4766-35.5079L375,50,228.4531,133.7422a99.991,99.991,0,0,0-41.7656,46.2109L100,375H212.5Zm50-175,12.5-25L275,175l25,12.5L275,200l-12.5,25L250,200l-25-12.5Z"/></svg>